HIERARCHY
ROOT Hips
{
  OFFSET 0.000000 0.000000 0.000000
  CHANNELS 6 Xposition Yposition Zposition Xrotation Yrotation Zrotation
  JOINT Spine
  {
    OFFSET -2.721785 23.846754 2.011942
    CHANNELS 3 Xrotation Yrotation Zrotation
    JOINT Chest
    {
      OFFSET -2.721785 23.846754 2.011942
      CHANNELS 3 Xrotation Yrotation Zrotation
      JOINT Neck
      {
        OFFSET 0.000000 3.794168 0.000000
        CHANNELS 3 Xrotation Yrotation Zrotation
        JOINT Head
        {
          OFFSET 0.000000 3.616294 0.000000
          CHANNELS 3 Xrotation Yrotation Zrotation
          End Site
          {
            OFFSET 0.000000 1.084888 0.000000
          }
        }
      }
      JOINT LeftCollar
      {
        OFFSET 3.000000 4.000000 0.000000
        CHANNELS 3 Xrotation Yrotation Zrotation
        JOINT LeftShoulder
        {
          OFFSET 14.869504 1.490289 -6.285599
          CHANNELS 3 Xrotation Yrotation Zrotation
          JOINT LeftArm
          {
            OFFSET 8.240244 -5.869636 -13.075080
            CHANNELS 3 Xrotation Yrotation Zrotation
            JOINT LeftForeArm
            {
              OFFSET -11.957707 3.691441 -10.565373
              CHANNELS 3 Xrotation Yrotation Zrotation
              JOINT LeftHand
              {
                OFFSET -4.140924 1.948982 -1.245566
                CHANNELS 3 Xrotation Yrotation Zrotation
                End Site
                {
                  OFFSET -1.242277 0.584695 -0.373670
                }
              }
            }
          }
        }
      }
      JOINT RightCollar
      {
        OFFSET -3.000000 4.000000 0.000000
        CHANNELS 3 Xrotation Yrotation Zrotation
        JOINT RightShoulder
        {
          OFFSET -14.869504 -1.490289 6.285599
          CHANNELS 3 Xrotation Yrotation Zrotation
          JOINT RightArm
          {
            OFFSET -1.922670 -23.388141 -12.917531
            CHANNELS 3 Xrotation Yrotation Zrotation
            JOINT RightForeArm
            {
              OFFSET 2.003331 14.137387 -21.097828
              CHANNELS 3 Xrotation Yrotation Zrotation
              JOINT RightHand
              {
                OFFSET 3.010116 6.425109 -4.530513
                CHANNELS 3 Xrotation Yrotation Zrotation
                End Site
                {
                  OFFSET 0.903035 1.927533 -1.359154
                }
              }
            }
          }
        }
      }
    }
  }
  JOINT LeftUpLeg
  {
    OFFSET 9.506946 0.418498 -0.262008
    CHANNELS 3 Xrotation Yrotation Zrotation
    JOINT LeftLeg
    {
      OFFSET 11.960976 -40.825369 -9.870072
      CHANNELS 3 Xrotation Yrotation Zrotation
      JOINT LeftFoot
      {
        OFFSET 15.497771 -39.189824 4.980190
        CHANNELS 3 Xrotation Yrotation Zrotation
        End Site
        {
          OFFSET 4.649331 -11.756947 1.494057
        }
      }
    }
  }
  JOINT RightUpLeg
  {
    OFFSET -9.506946 -0.418498 0.262008
    CHANNELS 3 Xrotation Yrotation Zrotation
    JOINT RightLeg
    {
      OFFSET -10.786019 -28.000506 0.300963
      CHANNELS 3 Xrotation Yrotation Zrotation
      JOINT RightFoot
      {
        OFFSET -6.553627 -40.114717 19.325346
        CHANNELS 3 Xrotation Yrotation Zrotation
        End Site
        {
          OFFSET -1.966088 -12.034415 5.797604
        }
      }
    }
  }
}
MOTION
Frames: 13
Frame Time: 0.083333
0.086158 0.214212 0.056782 -2.287977 0.245758 -8.618324 0.000000 0.000000 0.000000 10.946284 -41.092312 -4.303759 -55.494385 -10.436434 10.965837 0.000000 0.000000 0.000000 14.103032 -16.631701 -45.578913 -56.924416 -17.078966 56.378154 54.264964 -7.784666 -36.371857 -25.716504 12.376326 -3.617866 0.000000 0.000000 0.000000 14.103032 -16.631701 -45.578913 -27.724452 10.342273 97.169053 -10.167854 -33.182387 28.230663 -23.952871 -9.928373 34.536631 0.000000 0.000000 0.000000 9.710372 -0.760068 22.183831 -4.917245 3.409914 -18.395635 0.000000 0.000000 0.000000 3.379270 -0.092758 20.332211 -26.981144 -6.767043 -32.458309 0.000000 0.000000 0.000000
0.104450 0.219677 0.034549 -4.983344 -0.107945 -11.224862 0.000000 0.000000 0.000000 13.399077 -52.780165 -5.492753 -50.127441 -6.980493 18.936749 0.000000 0.000000 0.000000 22.771852 -13.171923 -78.381217 -63.692582 -43.284616 77.228659 50.652805 -14.688266 -36.151352 -26.583311 13.554303 -1.132448 0.000000 0.000000 0.000000 22.771852 -13.171923 -78.381217 -39.596600 -21.989754 155.422816 8.180282 -52.486080 42.294682 -41.619313 -49.182537 58.798321 0.000000 0.000000 0.000000 14.209134 0.067307 27.707553 -11.749616 3.751144 -22.905280 0.000000 0.000000 0.000000 4.235623 1.382611 23.672561 -25.974450 -9.674995 -36.731561 0.000000 0.000000 0.000000
0.110852 0.217036 0.058421 -4.998581 -0.086086 -11.227642 0.000000 0.000000 0.000000 11.924722 -46.136245 -5.276506 -49.613104 -9.142028 12.938505 0.000000 0.000000 0.000000 21.218973 -14.431679 -57.681333 -67.489401 -26.335716 61.034350 55.777964 -17.219506 -39.718262 -30.919364 11.035373 -2.754143 0.000000 0.000000 0.000000 21.218973 -14.431679 -57.681333 -45.323279 -5.096774 117.777820 32.028128 -49.852276 -105.570357 -42.538993 -33.991620 40.752753 0.000000 0.000000 0.000000 19.844635 1.705939 27.854673 -22.977520 3.498472 -24.158479 0.000000 0.000000 0.000000 3.409508 1.545406 23.220470 -23.204139 -9.993817 -36.058010 0.000000 0.000000 0.000000
0.094736 0.205863 0.109841 -10.993329 -1.239564 -9.803276 0.000000 0.000000 0.000000 8.725716 -28.390567 -6.983087 -51.888816 -15.557835 5.576506 0.000000 0.000000 0.000000 21.563544 -16.949870 -29.572033 -52.805014 -14.828832 44.956688 55.972083 -18.991052 -46.310418 -29.845789 11.530777 -4.111822 0.000000 0.000000 0.000000 21.563544 -16.949870 -29.572033 -33.878697 15.889957 70.936010 20.566718 -25.623288 -51.871625 -26.094503 -7.992865 19.948406 0.000000 0.000000 0.000000 24.522258 3.986079 21.661573 -22.028373 1.649871 -17.105528 0.000000 0.000000 0.000000 8.831730 3.350844 17.775770 -19.474596 -8.257564 -28.046517 0.000000 0.000000 0.000000
0.067952 0.195939 0.152328 -23.932429 -3.575102 -7.170050 0.000000 0.000000 0.000000 4.675442 -1.447062 -4.975649 -57.411958 -18.771910 -2.463056 0.000000 0.000000 0.000000 25.265496 -21.762386 -6.227823 -32.873106 -4.450813 24.062245 34.882086 -23.232033 -29.317571 -10.624412 20.606866 -13.375235 0.000000 0.000000 0.000000 25.265496 -21.762386 -6.227823 -10.054929 26.206938 25.111166 -4.212163 -8.333385 -13.955274 -2.039126 6.852302 -0.576311 0.000000 0.000000 0.000000 34.111148 7.056437 12.574703 -19.116560 -0.779255 -8.769640 0.000000 0.000000 0.000000 20.488037 6.944483 8.726450 -14.069485 -4.863946 -14.491663 0.000000 0.000000 0.000000
0.053030 0.190287 0.173442 -28.647669 -4.095035 -4.799707 0.000000 0.000000 0.000000 3.798640 8.918998 1.396599 -60.891586 -4.678466 -2.055940 0.000000 0.000000 0.000000 25.731827 -22.883309 -4.814211 -25.491682 -7.014525 13.519835 22.972904 -15.026447 -11.609026 4.022902 17.928353 -24.848272 0.000000 0.000000 0.000000 25.731827 -22.883309 -4.814211 -5.595344 18.663608 12.929173 -3.396542 -5.812919 -6.752449 1.722141 3.582975 -1.657697 0.000000 0.000000 0.000000 37.949064 6.752704 8.081989 -19.433442 -1.690772 -4.824341 0.000000 0.000000 0.000000 26.040728 6.754496 4.233393 -12.531204 -1.997019 -7.998769 0.000000 0.000000 0.000000
0.050535 0.185832 0.181124 -26.441403 -3.693477 -4.573042 0.000000 0.000000 0.000000 3.718164 10.100759 2.492210 -61.299996 4.615880 5.709094 0.000000 0.000000 0.000000 22.957076 -22.938685 -4.808190 -24.799777 -5.913951 10.230172 22.878760 -10.229731 -6.863197 4.976574 14.302519 -23.524597 0.000000 0.000000 0.000000 22.957076 -22.938685 -4.808190 -8.918851 16.443937 12.874806 -6.774818 0.485798 -2.452682 6.823900 0.089740 -2.515234 0.000000 0.000000 0.000000 33.630119 5.617879 8.725777 -16.599557 -1.252663 -4.950347 0.000000 0.000000 0.000000 26.239480 5.317254 0.950549 -11.434417 0.771846 0.002772 0.000000 0.000000 0.000000
0.059639 0.181708 0.170929 -23.035059 -3.285991 -5.894616 0.000000 0.000000 0.000000 4.234791 4.214757 0.864331 -62.095705 2.588975 9.382123 0.000000 0.000000 0.000000 21.045075 -22.712692 -5.334137 -27.983870 0.154410 12.261711 28.557682 -8.759729 -9.793043 -1.708215 17.036523 -11.486403 0.000000 0.000000 0.000000 21.045075 -22.712692 -5.334137 -15.795460 22.379680 14.725013 -11.248294 -2.415971 -0.957356 11.756426 0.603850 -4.500996 0.000000 0.000000 0.000000 29.592301 5.226220 11.720992 -11.055007 0.399466 -8.499139 0.000000 0.000000 0.000000 25.519509 4.416394 2.419273 -13.322355 1.577962 0.260349 0.000000 0.000000 0.000000
0.088544 0.195913 0.115354 -16.603107 -2.298577 -8.233723 0.000000 0.000000 0.000000 5.727009 -8.240134 -0.527815 -59.992585 -5.467457 6.800500 0.000000 0.000000 0.000000 18.381071 -21.622516 -11.054162 -37.060928 1.566549 21.362811 38.753659 -9.002971 -19.005846 -10.137195 16.098741 -8.772829 0.000000 0.000000 0.000000 18.381071 -21.622516 -11.054162 -24.097126 28.955623 24.437271 -6.560723 -19.205022 -4.520086 10.528002 0.919364 -3.872750 0.000000 0.000000 0.000000 26.169449 5.119947 16.062847 -9.743017 1.518072 -13.322153 0.000000 0.000000 0.000000 20.575099 3.112170 8.739399 -21.352968 1.354106 -6.763905 0.000000 0.000000 0.000000
0.101099 0.220848 0.074909 -7.927518 -0.694586 -11.316929 0.000000 0.000000 0.000000 10.384397 -34.211977 -1.412959 -53.339833 -9.488225 9.290248 0.000000 0.000000 0.000000 18.491513 -18.487555 -16.695948 -52.919000 -1.962035 48.392641 57.317432 -10.222662 -31.687097 -18.404369 10.842891 6.727237 0.000000 0.000000 0.000000 18.491513 -18.487555 -16.695948 -28.494244 24.011733 54.039959 24.182609 -46.688768 -11.505029 -10.238681 -17.759014 13.208087 0.000000 0.000000 0.000000 17.022665 3.148420 21.276775 -7.309901 2.185253 -15.756438 0.000000 0.000000 0.000000 8.597872 1.922309 20.698533 -18.292426 -4.868489 -25.695531 0.000000 0.000000 0.000000
0.096722 0.243281 0.064312 -5.489988 -0.109583 -14.387606 0.000000 0.000000 0.000000 18.665784 -58.724866 2.517022 -49.534878 1.290997 24.047605 0.000000 0.000000 0.000000 25.992814 -14.911216 19.748414 -46.758375 2.699295 75.348583 81.931712 -6.821096 -35.182175 -3.970192 -11.838686 36.482697 0.000000 0.000000 0.000000 25.992814 -14.911216 19.748414 2.302758 -4.350510 56.153644 66.352189 -69.105794 4.611338 -41.005180 -66.418617 54.159305 0.000000 0.000000 0.000000 12.883281 1.860935 26.010366 -3.551719 2.851871 -19.885315 0.000000 0.000000 0.000000 2.956407 2.099118 24.840434 -13.973860 -11.422981 -34.529610 0.000000 0.000000 0.000000
0.128243 0.251721 0.064786 -5.551644 -0.026365 -16.168642 0.000000 0.000000 0.000000 26.334521 -71.784092 10.888224 -50.736639 7.847496 32.225390 0.000000 0.000000 0.000000 29.701350 -15.387822 110.031474 9.857663 35.924550 53.765863 87.258342 -1.623758 -40.424879 25.590344 -32.757592 55.815730 0.000000 0.000000 0.000000 29.701350 -15.387822 110.031474 60.144641 -2.820347 -32.909648 31.040615 -67.756994 38.718615 -10.740210 -70.236336 89.656643 0.000000 0.000000 0.000000 13.071426 1.848143 28.863936 -2.952194 3.236245 -22.642201 0.000000 0.000000 0.000000 3.189558 1.939269 23.786425 -14.233785 -12.979043 -33.664653 0.000000 0.000000 0.000000
0.174969 0.255694 0.053039 -3.705716 0.557429 -17.938837 0.000000 0.000000 0.000000 19.955260 -59.376040 8.036225 -49.661774 0.986098 22.361391 0.000000 0.000000 0.000000 27.069097 -15.673956 54.213474 42.053075 14.252630 -52.256959 55.852410 -20.943111 -76.135650 -30.806296 -30.303818 20.902428 0.000000 0.000000 0.000000 27.069097 -15.673956 54.213474 17.162485 -7.193191 10.447167 89.016984 -63.129983 -90.947488 -11.359880 -68.900008 71.264153 0.000000 0.000000 0.000000 11.827819 1.905239 28.897068 -2.433320 2.953739 -20.029598 0.000000 0.000000 0.000000 1.064749 0.966389 25.279764 -11.238081 -14.028698 -34.730971 0.000000 0.000000 0.000000
